<?xml version="1.0" standalone="no"?>
<!DOCTYPE svg PUBLIC "-//W3C//DTD SVG 20010904//EN"
 "http://www.w3.org/TR/2001/REC-SVG-20010904/DTD/svg10.dtd">
<svg version="1.0" xmlns="http://www.w3.org/2000/svg"
 width="429.000000pt" height="143.000000pt" viewBox="0 0 429.000000 143.000000"
 preserveAspectRatio="xMidYMid meet">

<g transform="translate(0.000000,143.000000) scale(0.100000,-0.100000)"
fill="#000000" stroke="none">
<path d="M3241 1216 c-7 -8 -15 -31 -18 -53 -8 -50 -16 -59 -63 -67 -72 -11
-73 -69 0 -81 35 -6 40 -10 46 -40 3 -19 4 -38 1 -42 -8 -12 11 -218 24 -266
8 -31 14 -38 32 -35 33 5 47 62 54 225 6 140 7 144 30 148 68 14 79 17 90 27
33 27 -4 63 -78 76 -41 7 -43 9 -55 53 -6 26 -14 52 -18 58 -10 15 -31 14 -45
-3z"/>
<path d="M1093 1124 c-24 -24 -25 -30 -21 -100 l5 -74 -41 0 -42 0 3 63 c6 98
-24 135 -84 105 -20 -10 -36 -11 -54 -4 -19 6 -42 4 -85 -10 -138 -43 -210
-196 -149 -315 51 -98 210 -144 250 -71 9 17 14 21 15 11 0 -25 36 -52 58 -45
25 8 31 24 39 100 3 34 11 64 17 68 6 4 27 8 46 8 l35 0 -3 -52 c-3 -58 14
-101 41 -106 27 -5 44 48 57 181 16 149 10 235 -15 253 -27 20 -43 17 -72 -12z
m-213 -225 c0 -88 -3 -109 -12 -101 -7 5 -33 13 -57 17 -118 19 -113 119 9
170 30 12 56 23 58 24 1 0 2 -49 2 -110z"/>
<path d="M1347 1113 c-30 -8 -37 -47 -37 -214 0 -168 6 -199 42 -199 33 0 47
29 48 100 l0 65 43 -85 c48 -97 76 -116 121 -86 46 30 30 102 -41 185 -19 23
-34 43 -32 45 2 2 18 11 35 19 59 30 94 67 94 98 0 60 -54 47 -156 -39 l-60
-49 4 58 c3 43 0 65 -12 84 -9 14 -20 24 -24 24 -4 -1 -15 -3 -25 -6z"/>
<path d="M2142 1098 c-5 -7 -16 -35 -24 -62 -10 -34 -17 -44 -21 -33 -13 35
-130 14 -169 -30 -33 -37 -33 -74 1 -117 17 -21 31 -45 31 -52 0 -8 -19 -28
-42 -45 l-43 -31 -6 69 c-7 87 -21 115 -57 111 -21 -2 -33 -15 -55 -55 -16
-29 -34 -53 -42 -53 -21 0 -27 46 -13 111 11 52 10 61 -4 75 -41 42 -88 -30
-88 -134 0 -84 17 -133 55 -158 22 -15 32 -16 59 -6 43 16 46 15 46 -8 0 -34
28 -90 45 -90 8 0 23 12 33 28 13 21 24 26 47 24 63 -5 155 77 155 137 0 16
-13 40 -30 59 -37 41 -30 59 33 95 l44 24 -5 -113 c-4 -95 -2 -117 12 -139 21
-32 33 -32 87 4 24 16 47 27 51 25 4 -3 10 -27 14 -54 8 -59 24 -86 48 -77 13
5 16 20 16 74 0 136 -31 182 -97 143 l-36 -21 6 48 c17 129 20 233 7 248 -15
18 -44 20 -58 3z"/>
<path d="M3475 1086 c-34 -51 -62 -298 -42 -368 13 -48 59 -45 115 5 28 26 38
16 47 -55 7 -50 25 -74 50 -64 18 7 20 90 4 166 -14 65 -37 79 -85 51 l-34
-20 0 26 c0 14 5 77 12 139 9 91 9 116 -1 128 -19 23 -48 20 -66 -8z"/>
<path d="M2319 978 c-16 -29 -6 -172 16 -223 36 -86 65 -94 121 -35 l38 39 18
-30 c10 -16 25 -32 33 -36 22 -8 53 23 61 60 6 29 7 30 20 11 27 -39 36 -44
73 -44 24 0 48 8 65 21 l26 20 0 -21 c0 -45 41 -82 53 -47 3 9 8 9 21 -2 24
-20 45 2 53 55 7 46 38 84 69 84 30 0 41 -16 52 -80 19 -103 47 -145 78 -119
14 11 16 27 10 94 -8 107 -22 153 -57 188 -25 24 -34 28 -61 21 -18 -3 -43
-13 -55 -21 -21 -14 -22 -13 -33 26 -13 51 -34 53 -62 5 -19 -32 -22 -34 -31
-17 -41 76 -99 85 -159 23 l-38 -41 0 29 c0 30 -16 52 -37 52 -29 0 -52 -39
-59 -100 -5 -43 -10 -58 -17 -51 -17 17 -39 13 -67 -14 l-27 -26 -16 83 c-12
60 -22 88 -38 101 -28 22 -36 22 -50 -5z m458 -84 c4 -13 -34 -64 -48 -64 -14
0 -11 33 7 58 16 23 35 25 41 6z"/>
<path d="M1487 273 c-4 -3 -7 -24 -7 -45 0 -35 2 -38 30 -38 40 0 58 32 35 66
-15 23 -44 32 -58 17z m47 -29 c8 -20 -1 -34 -20 -34 -8 0 -14 10 -14 25 0 28
24 34 34 9z"/>
<path d="M1580 235 c0 -41 2 -45 25 -45 14 0 25 5 25 10 0 6 -7 10 -15 10 -21
0 -19 18 3 23 16 4 16 5 0 6 -22 1 -24 21 -3 21 8 0 15 5 15 10 0 6 -11 10
-25 10 -23 0 -25 -4 -25 -45z"/>
<path d="M1663 264 c-4 -11 3 -24 18 -36 l24 -19 -24 6 c-17 5 -22 4 -19 -6 3
-8 15 -14 29 -14 31 0 39 34 10 42 -12 3 -21 10 -21 15 0 5 10 6 22 2 20 -6
21 -5 9 10 -17 21 -40 21 -48 0z"/>
<path d="M1747 273 c-11 -10 -8 -83 3 -83 6 0 10 20 10 45 0 46 -2 50 -13 38z"/>
<path d="M1801 266 c-7 -8 -11 -27 -9 -43 3 -24 8 -28 36 -29 27 -1 32 2 32
23 0 14 -6 23 -16 23 -10 0 -14 -6 -11 -15 8 -20 -8 -28 -22 -11 -19 23 -2 48
27 41 22 -5 24 -4 13 9 -17 20 -35 20 -50 2z"/>
<path d="M1891 233 c1 -27 4 -38 6 -25 5 27 20 29 28 2 12 -39 35 -23 35 25 0
25 -4 45 -10 45 -5 0 -10 -12 -10 -27 l-1 -28 -17 28 c-24 39 -32 34 -31 -20z"/>
<path d="M2035 268 c-3 -8 -7 -28 -8 -44 -2 -26 1 -29 28 -31 25 -1 30 3 30
23 0 15 -5 23 -14 21 -8 -1 -16 4 -18 11 -3 8 1 10 13 5 12 -4 15 -2 12 8 -6
19 -37 24 -43 7z"/>
<path d="M2160 235 c0 -40 2 -45 23 -45 44 0 62 43 31 74 -8 9 -24 16 -35 16
-16 0 -19 -7 -19 -45z m45 0 c0 -11 -8 -21 -17 -23 -14 -3 -18 3 -18 23 0 20
4 26 18 23 9 -2 17 -12 17 -23z"/>
<path d="M2250 235 c0 -44 1 -45 31 -45 17 0 28 4 24 10 -3 6 -13 10 -21 10
-20 0 -18 18 4 23 16 4 16 5 0 6 -25 1 -22 21 3 21 11 0 17 5 14 10 -3 6 -17
10 -31 10 -22 0 -24 -4 -24 -45z"/>
<path d="M2330 266 c0 -26 22 -76 34 -76 13 0 41 78 32 87 -3 4 -12 -9 -19
-27 l-14 -32 -11 31 c-11 32 -22 41 -22 17z"/>
<path d="M2420 235 c0 -43 1 -45 30 -45 17 0 30 5 30 10 0 6 -9 10 -20 10 -25
0 -26 17 -2 23 16 4 16 5 0 6 -25 1 -23 21 2 21 11 0 20 5 20 10 0 6 -13 10
-30 10 -29 0 -30 -2 -30 -45z"/>
<path d="M2500 235 c0 -44 1 -45 31 -45 17 0 28 4 24 10 -3 6 -13 10 -21 10
-9 0 -14 11 -14 35 0 19 -4 35 -10 35 -5 0 -10 -20 -10 -45z"/>
<path d="M2592 268 c-7 -7 -12 -21 -12 -33 0 -43 50 -62 70 -26 22 43 -25 92
-58 59z m42 -24 c8 -20 -1 -34 -20 -34 -8 0 -14 10 -14 25 0 28 24 34 34 9z"/>
<path d="M2680 235 c0 -25 5 -45 10 -45 6 0 10 6 10 14 0 7 9 16 20 19 24 6
27 42 4 51 -36 14 -44 7 -44 -39z m40 10 c0 -8 -4 -15 -10 -15 -5 0 -10 7 -10
15 0 8 5 15 10 15 6 0 10 -7 10 -15z"/>
</g>
</svg>
