<?xml version="1.0" standalone="no"?>
<!DOCTYPE svg PUBLIC "-//W3C//DTD SVG 20010904//EN"
 "http://www.w3.org/TR/2001/REC-SVG-20010904/DTD/svg10.dtd">
<svg version="1.0" xmlns="http://www.w3.org/2000/svg"
 width="500.000000pt" height="184.000000pt" viewBox="0 0 500.000000 184.000000"
 preserveAspectRatio="xMidYMid meet">

<g transform="translate(0.000000,184.000000) scale(0.100000,-0.100000)"
fill="#000000" stroke="none">
<path d="M920 1338 c-41 -5 -179 -10 -307 -11 -127 -1 -230 -3 -228 -5 1 -2
31 -7 66 -12 l64 -9 -79 3 c-72 3 -82 1 -103 -20 -32 -32 -29 -52 20 -108 l43
-48 104 -10 c58 -6 106 -11 108 -13 2 -1 -1 -90 -6 -196 -14 -297 -2 -375 60
-395 25 -8 65 20 71 48 3 19 5 17 6 -7 l2 -30 14 25 c12 21 13 72 8 296 -4
167 -3 273 3 277 6 3 49 12 96 21 47 8 108 25 135 37 26 12 125 41 218 65 106
27 149 41 115 38 -64 -7 -179 -34 -264 -64 -33 -11 -61 -19 -62 -17 -2 2 5 19
15 38 16 30 17 41 8 72 -7 20 -16 36 -22 36 -5 -1 -44 -6 -85 -11z m-451 -184
c9 -8 -45 -2 -64 6 -14 7 -8 8 20 3 22 -3 42 -7 44 -9z"/>
<path d="M3245 1338 c-38 -5 -177 -10 -307 -11 -131 -1 -234 -3 -230 -5 4 -1
34 -6 67 -11 l60 -9 -82 1 c-49 0 -87 -4 -96 -11 -11 -9 -18 -8 -32 8 -23 26
-75 26 -106 1 -23 -18 -24 -24 -21 -128 1 -59 5 -116 8 -125 5 -18 -6 -21
-118 -33 l-56 -6 -7 120 c-7 112 -10 123 -37 161 -33 44 -64 52 -91 22 -14
-16 -15 -31 -7 -123 10 -112 13 -205 6 -198 -3 2 -12 71 -20 153 -9 82 -19
152 -22 155 -3 3 -2 -70 2 -164 l7 -169 -32 27 c-41 34 -65 34 -98 1 -22 -22
-24 -30 -17 -62 28 -126 -2 -229 -79 -273 -83 -46 -176 -23 -222 55 -56 96
-56 200 2 315 25 51 115 151 120 135 2 -5 6 -82 11 -171 7 -141 11 -166 28
-190 14 -18 32 -29 52 -31 42 -4 44 23 3 31 -16 3 -31 14 -35 23 -6 17 -6 17
12 1 10 -9 26 -17 36 -17 16 0 17 18 14 241 -3 227 -4 241 -23 255 -29 22 -79
9 -151 -37 -69 -45 -172 -147 -198 -197 l-17 -33 -20 25 c-16 21 -29 26 -65
26 -57 0 -173 -32 -293 -81 -97 -40 -115 -40 -109 1 4 28 66 54 293 121 93 28
173 55 176 61 13 21 -7 73 -33 85 -22 11 -51 7 -214 -32 -251 -61 -339 -90
-364 -122 -22 -28 -25 -60 -10 -95 6 -13 21 -128 33 -257 19 -190 26 -236 40
-246 9 -7 17 -17 17 -23 0 -20 35 -31 71 -23 19 4 86 29 149 54 113 45 251 89
324 103 34 6 40 3 74 -31 77 -78 195 -110 297 -80 110 31 179 98 215 206 l17
50 5 -100 c4 -89 8 -104 32 -136 30 -39 53 -44 86 -17 29 23 39 80 40 225 l0
117 85 0 85 0 1 -107 c1 -175 12 -263 34 -279 25 -19 29 -18 60 9 33 28 42 70
51 229 6 114 9 128 26 134 26 8 58 62 58 97 0 29 -31 67 -55 67 -12 0 -15 16
-15 86 l0 87 20 -25 c27 -35 60 -46 162 -53 l88 -7 -6 -256 c-5 -236 -4 -260
13 -292 23 -44 66 -62 91 -37 9 10 23 32 30 50 l12 32 -5 -40 c-5 -37 -4 -39
10 -21 13 17 15 64 15 301 l0 282 101 17 c55 10 102 16 104 14 2 -1 6 -20 10
-40 6 -31 4 -38 -8 -38 -20 0 -47 -27 -47 -46 0 -13 59 -78 79 -86 10 -4 48
-213 57 -317 10 -107 58 -153 102 -96 21 26 21 43 7 285 l-7 115 49 -3 c37 -3
53 -9 63 -25 8 -12 48 -103 91 -202 l77 -180 48 0 49 0 -1 65 c-1 69 -29 140
-109 278 l-37 63 74 -6 c40 -4 79 -8 86 -10 8 -3 12 -27 12 -72 0 -90 16 -223
30 -254 17 -35 59 -63 97 -62 18 1 37 -5 44 -13 18 -22 58 -17 83 11 14 15 30
23 39 20 11 -5 36 26 91 107 42 62 84 124 94 136 l18 24 50 -59 c28 -32 78
-95 113 -140 56 -76 81 -98 81 -74 0 14 -92 151 -146 216 -75 92 -82 106 -18
38 33 -34 88 -107 124 -162 36 -55 73 -103 83 -106 23 -8 57 21 57 47 0 11 -5
29 -11 41 -22 41 -132 202 -181 264 -31 39 -47 67 -42 75 9 15 91 114 148 179
23 25 -8 -4 -68 -65 l-109 -111 64 80 c35 44 81 99 102 123 20 24 37 51 37 61
0 21 -29 83 -44 94 -19 13 -65 -1 -111 -34 -41 -29 -133 -130 -154 -168 -8
-13 -20 -6 -73 45 -74 71 -125 109 -155 118 -13 4 -36 20 -52 37 -50 49 -128
36 -185 -31 -47 -57 -29 -76 67 -74 31 0 57 -2 57 -5 0 -4 16 -15 35 -25 19
-10 42 -28 52 -39 17 -19 16 -19 -14 1 -17 12 -38 22 -46 22 -9 0 -19 5 -22
10 -19 31 -99 -10 -122 -62 l-18 -40 -20 25 c-44 55 -266 185 -387 227 -87 31
-118 33 -233 18z m668 -127 c-8 -10 -35 28 -28 39 5 8 11 4 19 -12 7 -12 11
-25 9 -27z m-336 -70 c45 -22 99 -51 120 -66 l38 -26 -55 7 c-30 4 -74 17 -96
31 -40 23 -70 23 -85 0 -11 -17 -26 1 -34 40 -4 20 -14 43 -23 51 -32 26 49 4
135 -37z m-1715 -8 c-7 -65 -12 -67 -12 -5 0 29 4 52 9 52 5 0 6 -21 3 -47z
m937 21 c10 -9 -56 -3 -69 7 -11 7 -4 8 25 3 22 -4 42 -8 44 -10z m1272 -37
c-1 -4 -2 -71 -2 -149 -2 -112 -3 -131 -9 -88 -13 88 -12 252 1 248 6 -2 10
-7 10 -11z m92 -67 c39 -34 75 -67 80 -75 5 -9 -5 -33 -27 -68 -19 -30 -54
-92 -78 -138 l-43 -84 -6 60 c-8 75 -11 365 -3 365 3 0 37 -27 77 -60z m-216
-2 c-3 -7 -5 -2 -5 12 0 14 2 19 5 13 2 -7 2 -19 0 -25z m-10 -195 c-2 -21 -4
-6 -4 32 0 39 2 55 4 38 2 -18 2 -50 0 -70z m-2405 38 c-6 -18 -28 -30 -95
-53 -48 -15 -141 -50 -207 -77 -113 -45 -120 -47 -120 -27 0 12 -3 30 -6 42
-5 18 5 25 73 56 100 45 163 66 271 88 93 19 101 16 84 -29z m-232 16 c-120
-53 -154 -66 -158 -62 -11 11 14 24 88 48 80 27 111 33 70 14z m1180 -3 c-58
-8 -150 -8 -150 -1 0 4 39 6 88 6 48 -1 76 -3 62 -5z m-1343 -395 c-21 -11
-46 -19 -55 -17 -10 2 1 11 28 20 62 22 73 21 27 -3z"/>
<path d="M3943 1193 c9 -2 25 -2 35 0 9 3 1 5 -18 5 -19 0 -27 -2 -17 -5z"/>
<path d="M3514 825 c3 -38 6 -99 7 -135 0 -50 2 -60 9 -42 9 22 -6 232 -17
242 -3 3 -3 -26 1 -65z"/>
</g>
</svg>
