<?xml version="1.0" standalone="no"?>
<!DOCTYPE svg PUBLIC "-//W3C//DTD SVG 20010904//EN"
 "http://www.w3.org/TR/2001/REC-SVG-20010904/DTD/svg10.dtd">
<svg version="1.0" xmlns="http://www.w3.org/2000/svg"
 width="500.000000pt" height="500.000000pt" viewBox="0 0 500.000000 500.000000"
 preserveAspectRatio="xMidYMid meet">

<g transform="translate(0.000000,500.000000) scale(0.100000,-0.100000)"
fill="#000000" stroke="none">
<path d="M832 2988 l3 -73 1665 0 1665 0 3 73 3 72 -1671 0 -1671 0 3 -72z"/>
<path d="M1805 2791 c-58 -16 -82 -30 -108 -61 -40 -47 -50 -94 -46 -217 4
-97 7 -114 29 -146 36 -53 90 -79 174 -85 84 -5 144 9 186 44 42 36 59 73 67
144 l6 60 -112 0 -111 0 0 -40 c0 -22 -4 -40 -10 -40 -6 0 -10 37 -10 91 0 57
4 88 10 84 6 -3 10 -22 10 -41 l0 -34 110 0 110 0 0 33 c0 51 -27 131 -52 154
-13 11 -38 28 -56 37 -38 20 -153 29 -197 17z"/>
<path d="M950 2710 l0 -80 30 0 30 0 0 -170 0 -170 110 0 110 0 0 170 0 170
30 0 30 0 0 80 0 80 -170 0 -170 0 0 -80z"/>
<path d="M1310 2540 l0 -250 165 0 165 0 0 65 0 64 -57 3 c-57 3 -58 3 -58 33
0 28 3 30 43 33 l42 3 0 44 0 44 -42 3 c-40 3 -43 5 -46 36 l-3 32 55 0 56 0
0 70 0 70 -160 0 -160 0 0 -250z"/>
<path d="M2127 2783 c-4 -3 -7 -116 -7 -250 l0 -243 105 0 105 0 0 90 c0 53 4
90 10 90 6 0 10 -37 10 -90 l0 -90 105 0 105 0 0 250 0 250 -105 0 -105 0 0
-95 c0 -57 -4 -95 -10 -95 -6 0 -10 38 -10 95 l0 95 -98 0 c-54 0 -102 -3
-105 -7z"/>
<path d="M2570 2710 l0 -80 35 0 35 0 0 -170 0 -170 105 0 105 0 0 169 0 170
33 3 32 3 0 75 0 75 -172 3 -173 2 0 -80z"/>
<path d="M2938 2785 c-5 -5 -8 -118 -8 -252 l0 -243 100 0 100 0 0 75 c0 43 4
75 10 75 6 0 10 -32 10 -75 l0 -75 100 0 c114 0 108 -9 84 105 -15 72 -15 79
1 109 13 25 16 51 14 118 -4 96 -17 119 -79 146 -39 16 -319 30 -332 17z m212
-190 c0 -25 -4 -45 -10 -45 -5 0 -10 20 -10 45 0 25 5 45 10 45 6 0 10 -20 10
-45z"/>
<path d="M3370 2540 l0 -250 105 0 105 0 0 250 0 250 -105 0 -105 0 0 -250z"/>
<path d="M3600 2786 c0 -2 11 -58 25 -125 l24 -121 -28 -125 -28 -125 107 0
107 0 7 38 c3 20 6 60 7 87 2 55 5 43 14 -57 l7 -68 107 0 108 0 -29 127 -29
128 26 117 c14 65 25 120 25 123 0 3 -47 5 -104 5 l-104 0 -6 -62 c-11 -114
-13 -126 -15 -77 0 25 -4 67 -7 93 l-7 46 -103 0 c-57 0 -104 -2 -104 -4z"/>
<path d="M832 2088 l3 -73 1665 0 1665 0 3 73 3 72 -1671 0 -1671 0 3 -72z"/>
</g>
</svg>
